<svg id="Layer_1" data-name="Layer 1" xmlns="http://www.w3.org/2000/svg" viewBox="0 0 5473 2000"><defs><style>.cls-1,.cls-3{fill:#fff;}.cls-1,.cls-3,.cls-4{stroke:#09093b;stroke-miterlimit:10;}.cls-1{stroke-width:5.03px;}.cls-2,.cls-4{fill:#9f1b1f;}.cls-3,.cls-4{stroke-width:6.45px;fill-rule:evenodd;}</style></defs><title>FAFLEXLOGO</title><polygon class="cls-1" points="2326 1660.29 2326 404.93 2947.56 406.66 2947.56 665.16 2586.09 665.16 2586.09 891.84 2793.47 891.84 2793.47 1156.24 2586.09 1156.24 2586.09 1660.29 2326 1660.29"/><path class="cls-1" d="M2896,458.07V613.6H2534.53V943.39h207.38v161.3H2534.53v504h-157V456.63Z"/><polygon class="cls-1" points="2964.51 1660.29 2964.51 405.07 3228.92 405.07 3228.92 1401.64 3587.51 1401.64 3587.51 1660.29 2964.51 1660.29"/><path class="cls-1" d="M3016.07,456.63h161.29V1453.2H3536v155.53H3016.07Z"/><polygon class="cls-1" points="3595.82 1660.29 3595.82 406.66 4207.3 404.93 4207.3 659.4 3857.34 659.4 3857.34 896.15 4058.96 896.15 4058.96 1154.8 3857.34 1154.8 3857.34 1401.64 4208.74 1401.64 4208.74 1660.29 3595.82 1660.29"/><path class="cls-1" d="M4155.74,456.63V607.84H3805.79V947.71H4007.4v155.54H3805.79v350h351.39v155.53H3647.37V458.07Z"/><polygon class="cls-1" points="4639.45 1660.29 4582.12 1454.78 4517.73 1660.29 4242.88 1660.29 4457.21 1012.6 4254.17 405.07 4526.4 405.07 4587.48 600.51 4644.19 405.07 4923 405.07 4719.69 1013.43 4911.87 1660.29 4639.45 1660.29"/><path class="cls-1" d="M4665.63,1012.52l177.14,596.21H4678.59L4585,1273.18l-105.13,335.55H4314.24l197.3-596.21L4325.76,456.63H4488.5l100.81,322.59,93.6-322.59h168.5Z"/><path class="cls-2" d="M2896,458.07V613.6H2534.53V943.39h207.38v161.3H2534.53v504h-157V456.63Z"/><path class="cls-2" d="M3016.07,456.63h161.29V1453.2H3536v155.53H3016.07Z"/><path class="cls-2" d="M4155.74,456.63V607.84H3805.79V947.71H4007.4v155.54H3805.79v350h351.39v155.53H3647.37V458.07Z"/><path class="cls-2" d="M4665.63,1012.52l177.14,596.21H4678.59L4585,1273.18l-105.13,335.55H4314.24l197.3-596.21L4325.76,456.63H4488.5l100.81,322.59,93.6-322.59h168.5Z"/><path class="cls-3" d="M257.29,183c273.61,3,558.82-2.93,835.82,2.45v321.1h174c57.69,171.89,111.77,347.39,169.12,519.62,65,35.53,131.93,69.06,198.54,102.94-39.13,40.12-89.21,69.3-129.91,107.86,27,95.07,61.26,186.54,90.69,279.42,9.9,31.23,15.07,66.07,29.41,93.13,18.5,34.92,59.94,61.27,88.24,88.24a1173,1173,0,0,1,83.34,88.24H1178.9c-4.12-11,14.47-26.64,24.51-39.21,30.75-38.53,67.51-83.39,98-122.56-7.55-32.47-20.24-59.82-27-93.15H1009.77c-12.74,26.47-18.32,60.11-29.41,88.25,34.77,60.82,93.25,111,125,166.67H487.69c-3.12-9.75,10-14.9,14.71-19.61,35-35,70.74-73.94,110.3-110.29,15.39-14.15,35.79-29,44.12-44.12,22.57-41.1,20.93-90,44.12-137.26H242.59c40.2-62,103.06-122.43,152-183.84-.44-114.09,4.23-235.86,2.45-343.14-34.08-37-78.09-64.07-107.84-105.4C325,808.7,359.94,774.23,392.1,737V570.27c0-54.14,10.18-115.45,0-166.67-6.19-31.17-45.61-75.51-66.18-107.85C299,253.36,275,217.45,257.29,183ZM428.87,325.16c12.31,19.69,32.88,42.91,36.77,61.28,5.83,27.6,0,64.75,0,98,0,98.75,2.4,200.76-4.91,289.23-20.76,25.81-49,44.15-66.18,73.53,12.64,23.83,63.64,44.77,71.09,71.08,6.9,24.41,0,65.26,0,98v299c-11.6,13.78-24.92,30.95-39.22,46.58-12.44,13.59-36.33,29.66-34.32,41.67H700.94c-8.43-33-60.87-65.55-68.63-103-5.89-28.37,0-67.48,0-102.94V886.46c102.29-11.61,140.93,40.45,210.79,61.28,0-71.91,4.16-139.65,2.45-213.25C777.22,752.77,726.42,801.64,632.31,786c1.63-134-3.27-274.53,2.45-404.43H781.82c50,0,105.78-9.28,147.07,0,16.41,3.68,35.31,21.37,49,31.86,15.08,11.54,28.16,28.69,44.12,27V256.53c-210.8,1.64-428.12-3.26-634.83,2.45C399.5,276,412.66,299.24,428.87,325.16ZM904.38,452.62c-64.06-12.67-130,7.23-198.54,2.45-.14-1.5-.36-2.9-2.45-2.45V712.43c75.47-20.11,144-60.27,213.24-78.43,1.63,54.74-3.26,116,2.45,166.67,28.19-93.55,59.9-183.58,88.24-277C979.92,510.15,928.67,457.42,904.38,452.62Zm156.86,120.1C1003.3,736.2,953.33,907.63,897,1072.74c-45.18,23.45-92.32,44.94-134.81,71.08,31.44,22.48,61.24,46.62,90.69,71.09C805,1358.2,757.62,1502,713.19,1648.73c-12.38,9.59-25.54,23.67-39.21,36.77-12,11.48-34.38,27.58-31.87,36.77H973c-3-28-61-56-63.73-88.24-1.88-22.67,19.16-57.68,27-83.33,9.38-30.82,13.81-58.63,27-83.35h357.86c16.46,57.09,34.59,112.48,51.47,169.13-8.69,14.3-22.07,28.84-34.31,44.12-10.93,13.66-28.15,30.3-27,41.67h330.9c-16.61-28.47-56.27-45.84-73.53-78.44-15.68-29.59-22.38-70.31-34.31-107.84-34.1-107.18-73.68-221.55-105.4-321.08,28.84-25.9,61.58-47.9,90.69-73.53-46.52-22.93-92.67-46.22-137.27-71.09C1330.19,903.47,1274.71,740,1223,572.72Zm-355.4,527c43.38-26.07,94.34-44.55,134.81-73.54-48.47-17.71-89-43.38-137.26-61.27C705,1009,700.13,1059.67,705.84,1099.71Zm-2.45,188.72c13.2,17,27.56,32.9,41.67,49,10.21-33.9,22.42-65.81,31.86-100.48-22.92-21.21-48.59-39.65-73.53-58.84Z"/><path class="cls-4" d="M387.2,259c206.71-5.71,424-.81,634.83-2.45V440.36c-16,1.73-29-15.42-44.12-27-13.71-10.49-32.61-28.18-49-31.86-41.29-9.28-97.06,0-147.07,0H634.76C629,511.44,633.94,652,632.31,786c94.11,15.67,144.91-33.2,213.24-51.48,1.71,73.6-2.45,141.34-2.45,213.25-69.86-20.83-108.5-72.89-210.79-61.28v311.28c0,35.46-5.89,74.57,0,102.94,7.76,37.41,60.2,69.93,68.63,103H392.1c-2-12,21.88-28.08,34.32-41.67,14.3-15.63,27.62-32.8,39.22-46.58v-299c0-32.79,6.9-73.64,0-98-7.45-26.31-58.45-47.25-71.09-71.08,17.19-29.38,45.42-47.72,66.18-73.53,7.31-88.47,4.91-190.48,4.91-289.23,0-33.29,5.83-70.44,0-98-3.89-18.37-24.46-41.59-36.77-61.28C412.66,299.24,399.5,276,387.2,259Z"/><path class="cls-4" d="M1223,572.72c51.69,167.27,107.17,330.75,159.31,497.57,44.6,24.87,90.75,48.16,137.27,71.09-29.11,25.63-61.85,47.63-90.69,73.53,31.72,99.53,71.3,213.9,105.4,321.08,11.93,37.53,18.63,78.25,34.31,107.84,17.26,32.6,56.92,50,73.53,78.44h-330.9c-1.18-11.37,16-28,27-41.67,12.24-15.28,25.62-29.82,34.31-44.12-16.88-56.65-35-112-51.47-169.13H963.2c-13.15,24.72-17.58,52.53-27,83.35-7.8,25.65-28.84,60.66-27,83.33,2.68,32.26,60.77,60.2,63.73,88.24H642.11C639.6,1713.08,662,1697,674,1685.5c13.67-13.1,26.83-27.18,39.21-36.77C757.62,1502,805,1358.2,852.9,1214.91c-29.45-24.47-59.25-48.61-90.69-71.09,42.49-26.14,89.63-47.63,134.81-71.08,56.31-165.11,106.28-336.54,164.22-500ZM997.51,1352.16h286.78c-48.62-164.61-93.11-333.36-144.61-495.11C1092,1021.81,1044.21,1186.43,997.51,1352.16Z"/><path class="cls-3" d="M1139.68,857.05c51.5,161.75,96,330.5,144.61,495.11H997.51C1044.21,1186.43,1092,1021.81,1139.68,857.05Zm-56.38,431.38h115.21c-18.6-68.82-37.42-137.43-58.83-203.43C1122.65,1154.58,1099.54,1218.06,1083.3,1288.43Z"/></svg>