<?xml version="1.0" encoding="utf-8"?>
<!-- Generator: Adobe Illustrator 23.0.2, SVG Export Plug-In . SVG Version: 6.00 Build 0)  -->
<svg version="1.1" id="Layer_1" xmlns:sketch="http://www.bohemiancoding.com/sketch/ns"
	 xmlns="http://www.w3.org/2000/svg" xmlns:xlink="http://www.w3.org/1999/xlink" x="0px" y="0px" viewBox="0 0 213.3 46"
	 style="enable-background:new 0 0 213.3 46;" xml:space="preserve">
<style type="text/css">
	.st0{fill:#D3D3D3;}
	.st1{fill:none;}
	.st2{fill-rule:evenodd;clip-rule:evenodd;fill:#4285F4;}
	.st3{fill-rule:evenodd;clip-rule:evenodd;fill:#34A853;}
	.st4{fill-rule:evenodd;clip-rule:evenodd;fill:#FBBC05;}
	.st5{fill-rule:evenodd;clip-rule:evenodd;fill:#EA4335;}
	.st6{fill:#4C4C4C;}
</style>
<title>btn_google_dark_normal_ios</title>
<desc>Created with Sketch.</desc>
<path class="st0" d="M202.8,42H6.8C5.2,42,4,40.8,4,39.2V6.8C4,5.2,5.2,4,6.8,4h196c1.5,0,2.8,1.2,2.8,2.8v32.5
	C205.6,40.8,204.3,42,202.8,42z"/>
<path class="st1" d="M5,4h36c0.6,0,1,0.4,1,1v36c0,0.6-0.4,1-1,1H5c-0.6,0-1-0.4-1-1V5C4,4.4,4.4,4,5,4z"/>
<path class="st1" d="M5,4h36c0.6,0,1,0.4,1,1v36c0,0.6-0.4,1-1,1H5c-0.6,0-1-0.4-1-1V5C4,4.4,4.4,4,5,4z"/>
<path class="st1" d="M5,4h36c0.6,0,1,0.4,1,1v36c0,0.6-0.4,1-1,1H5c-0.6,0-1-0.4-1-1V5C4,4.4,4.4,4,5,4z"/>
<path id="Shape" sketch:type="MSShapeGroup" class="st2" d="M31.6,23.2c0-0.6-0.1-1.3-0.2-1.8H23v3.5h4.8C27.6,26,27,26.9,26,27.6
	v2.3H29C30.7,28.3,31.6,25.9,31.6,23.2L31.6,23.2z"/>
<path sketch:type="MSShapeGroup" class="st3" d="M23,32c2.4,0,4.5-0.8,6-2.2L26,27.6c-0.8,0.5-1.8,0.9-3,0.9c-2.3,0-4.3-1.6-5-3.7
	h-3V27C16.4,30,19.5,32,23,32L23,32z"/>
<path sketch:type="MSShapeGroup" class="st4" d="M18,24.7c-0.2-0.5-0.3-1.1-0.3-1.7s0.1-1.2,0.3-1.7V19h-3c-0.6,1.2-1,2.6-1,4
	s0.3,2.8,1,4L18,24.7L18,24.7z"/>
<path sketch:type="MSShapeGroup" class="st5" d="M23,17.6c1.3,0,2.5,0.5,3.4,1.3l2.6-2.6c-1.6-1.5-3.6-2.3-6-2.3c-3.5,0-6.6,2-8,5
	l3,2.3C18.7,19.2,20.7,17.6,23,17.6L23,17.6z"/>
<path sketch:type="MSShapeGroup" class="st1" d="M14,14h18v18H14V14z"/>
<g>
	<path class="st6" d="M46.1,24.1c-1.4-0.4-2.5-0.9-3.2-1.5c-0.7-0.6-1-1.4-1-2.2c0-1,0.4-1.8,1.2-2.5c0.8-0.7,1.9-1,3.1-1
		c0.9,0,1.7,0.2,2.4,0.5s1.2,0.8,1.6,1.4c0.4,0.6,0.6,1.3,0.6,2h-1.7c0-0.8-0.2-1.4-0.7-1.8s-1.2-0.7-2.1-0.7
		c-0.8,0-1.5,0.2-1.9,0.6c-0.5,0.4-0.7,0.9-0.7,1.5c0,0.5,0.2,1,0.7,1.3c0.4,0.4,1.2,0.7,2.3,1c1.1,0.3,1.9,0.6,2.5,1
		c0.6,0.4,1,0.8,1.3,1.3c0.3,0.5,0.4,1,0.4,1.7c0,1-0.4,1.9-1.2,2.5c-0.8,0.6-1.9,0.9-3.2,0.9c-0.9,0-1.7-0.2-2.5-0.5
		c-0.8-0.3-1.3-0.8-1.8-1.4c-0.4-0.6-0.6-1.3-0.6-2h1.7c0,0.8,0.3,1.4,0.9,1.8c0.6,0.4,1.3,0.7,2.3,0.7c0.9,0,1.6-0.2,2-0.5
		s0.7-0.9,0.7-1.5s-0.2-1.1-0.7-1.5C48.1,24.8,47.3,24.4,46.1,24.1z"/>
	<path class="st6" d="M52.8,17.8c0-0.3,0.1-0.5,0.2-0.7s0.4-0.3,0.7-0.3s0.6,0.1,0.7,0.3s0.2,0.4,0.2,0.7s-0.1,0.5-0.2,0.7
		s-0.4,0.3-0.7,0.3s-0.6-0.1-0.7-0.3S52.8,18.1,52.8,17.8z M54.5,29.8h-1.6v-9.5h1.6V29.8z"/>
	<path class="st6" d="M56.7,25c0-1.5,0.3-2.7,1-3.5c0.7-0.9,1.6-1.3,2.7-1.3c1.2,0,2.1,0.4,2.7,1.2l0.1-1.1h1.5v9.3
		c0,1.2-0.4,2.2-1.1,2.9c-0.7,0.7-1.7,1.1-2.9,1.1c-0.7,0-1.4-0.1-2-0.4s-1.2-0.7-1.5-1.2l0.8-1c0.7,0.9,1.5,1.3,2.6,1.3
		c0.8,0,1.4-0.2,1.8-0.7s0.7-1.1,0.7-1.9v-0.8c-0.7,0.8-1.5,1.1-2.7,1.1c-1.1,0-2-0.4-2.7-1.3C57.1,27.8,56.7,26.5,56.7,25z
		 M58.4,25.2c0,1.1,0.2,1.9,0.7,2.5c0.4,0.6,1.1,0.9,1.8,0.9c1,0,1.8-0.5,2.3-1.4v-4.3c-0.5-0.9-1.2-1.4-2.2-1.4
		c-0.8,0-1.4,0.3-1.9,0.9C58.6,23.1,58.4,24,58.4,25.2z"/>
	<path class="st6" d="M68.8,20.3l0.1,1.2c0.7-0.9,1.7-1.4,2.8-1.4c2,0,3,1.1,3,3.4v6.3h-1.6v-6.3c0-0.7-0.2-1.2-0.5-1.5
		c-0.3-0.3-0.8-0.5-1.4-0.5c-0.5,0-1,0.1-1.4,0.4s-0.7,0.7-0.9,1.1v6.8h-1.6v-9.5H68.8z"/>
	<path class="st6" d="M81.6,17.8c0-0.3,0.1-0.5,0.2-0.7s0.4-0.3,0.7-0.3s0.6,0.1,0.7,0.3s0.2,0.4,0.2,0.7s-0.1,0.5-0.2,0.7
		s-0.4,0.3-0.7,0.3s-0.6-0.1-0.7-0.3S81.6,18.1,81.6,17.8z M83.4,29.8h-1.6v-9.5h1.6V29.8z"/>
	<path class="st6" d="M87.5,20.3l0.1,1.2c0.7-0.9,1.7-1.4,2.8-1.4c2,0,3,1.1,3,3.4v6.3h-1.6v-6.3c0-0.7-0.2-1.2-0.5-1.5
		c-0.3-0.3-0.8-0.5-1.4-0.5c-0.5,0-1,0.1-1.4,0.4s-0.7,0.7-0.9,1.1v6.8H86v-9.5H87.5z"/>
	<path class="st6" d="M108.8,27.6l1.8-7.3h1.6l-2.8,9.5h-1.3l-2.3-7.2l-2.3,7.2h-1.3l-2.8-9.5h1.6l1.9,7.1l2.2-7.1h1.3L108.8,27.6z"
		/>
	<path class="st6" d="M113.9,17.8c0-0.3,0.1-0.5,0.2-0.7s0.4-0.3,0.7-0.3s0.6,0.1,0.7,0.3s0.2,0.4,0.2,0.7s-0.1,0.5-0.2,0.7
		s-0.4,0.3-0.7,0.3s-0.6-0.1-0.7-0.3S113.9,18.1,113.9,17.8z M115.7,29.8H114v-9.5h1.6V29.8z"/>
	<path class="st6" d="M120.5,18v2.3h1.8v1.3h-1.8v5.9c0,0.4,0.1,0.7,0.2,0.9s0.4,0.3,0.8,0.3c0.2,0,0.4,0,0.8-0.1v1.3
		c-0.4,0.1-0.8,0.2-1.2,0.2c-0.7,0-1.3-0.2-1.6-0.7s-0.6-1.1-0.6-1.9v-5.9h-1.7v-1.3h1.7V18H120.5z"/>
	<path class="st6" d="M125.8,21.5c0.7-0.9,1.7-1.3,2.8-1.3c2,0,3,1.1,3,3.4v6.3H130v-6.3c0-0.7-0.2-1.2-0.5-1.5
		c-0.3-0.3-0.8-0.5-1.4-0.5c-0.5,0-1,0.1-1.4,0.4s-0.7,0.7-0.9,1.1v6.8h-1.6V16.3h1.6V21.5z"/>
	<path class="st6" d="M148.2,28.1c-0.4,0.6-1,1.1-1.8,1.4c-0.8,0.3-1.7,0.5-2.7,0.5c-1,0-2-0.2-2.8-0.7c-0.8-0.5-1.4-1.2-1.9-2.1
		c-0.4-0.9-0.7-1.9-0.7-3.1v-1.1c0-1.9,0.4-3.4,1.3-4.5c0.9-1.1,2.2-1.6,3.8-1.6c1.3,0,2.4,0.3,3.2,1s1.3,1.7,1.5,2.9h-1.7
		c-0.3-1.7-1.3-2.5-3-2.5c-1.1,0-2,0.4-2.6,1.2c-0.6,0.8-0.9,1.9-0.9,3.5v1c0,1.4,0.3,2.6,1,3.4c0.7,0.8,1.5,1.3,2.7,1.3
		c0.6,0,1.2-0.1,1.7-0.2c0.5-0.1,0.9-0.4,1.2-0.7v-2.9h-3v-1.4h4.6V28.1z"/>
	<path class="st6" d="M150.3,25c0-0.9,0.2-1.8,0.5-2.5c0.4-0.7,0.9-1.3,1.5-1.7c0.7-0.4,1.4-0.6,2.2-0.6c1.3,0,2.3,0.4,3.1,1.3
		c0.8,0.9,1.2,2.1,1.2,3.6v0.1c0,0.9-0.2,1.8-0.5,2.5c-0.4,0.7-0.9,1.3-1.5,1.7c-0.7,0.4-1.4,0.6-2.3,0.6c-1.3,0-2.3-0.4-3.1-1.3
		c-0.8-0.9-1.2-2.1-1.2-3.6V25z M152,25.2c0,1.1,0.2,1.9,0.7,2.5s1.1,1,2,1c0.8,0,1.5-0.3,2-1c0.5-0.6,0.7-1.6,0.7-2.7
		c0-1-0.2-1.9-0.7-2.5c-0.5-0.6-1.2-1-2-1c-0.8,0-1.5,0.3-1.9,1C152.2,23.1,152,24,152,25.2z"/>
	<path class="st6" d="M160.6,25c0-0.9,0.2-1.8,0.5-2.5c0.4-0.7,0.9-1.3,1.5-1.7c0.7-0.4,1.4-0.6,2.2-0.6c1.3,0,2.3,0.4,3.1,1.3
		c0.8,0.9,1.2,2.1,1.2,3.6v0.1c0,0.9-0.2,1.8-0.5,2.5c-0.4,0.7-0.9,1.3-1.5,1.7c-0.7,0.4-1.4,0.6-2.3,0.6c-1.3,0-2.3-0.4-3.1-1.3
		c-0.8-0.9-1.2-2.1-1.2-3.6V25z M162.2,25.2c0,1.1,0.2,1.9,0.7,2.5s1.1,1,2,1c0.8,0,1.5-0.3,2-1c0.5-0.6,0.7-1.6,0.7-2.7
		c0-1-0.2-1.9-0.7-2.5c-0.5-0.6-1.2-1-2-1c-0.8,0-1.5,0.3-1.9,1C162.5,23.1,162.2,24,162.2,25.2z"/>
	<path class="st6" d="M170.9,25c0-1.5,0.3-2.7,1-3.5c0.7-0.9,1.6-1.3,2.7-1.3c1.2,0,2.1,0.4,2.7,1.2l0.1-1.1h1.5v9.3
		c0,1.2-0.4,2.2-1.1,2.9c-0.7,0.7-1.7,1.1-2.9,1.1c-0.7,0-1.4-0.1-2-0.4s-1.2-0.7-1.5-1.2l0.8-1c0.7,0.9,1.5,1.3,2.6,1.3
		c0.8,0,1.4-0.2,1.8-0.7s0.7-1.1,0.7-1.9v-0.8c-0.7,0.8-1.5,1.1-2.7,1.1c-1.1,0-2-0.4-2.7-1.3C171.3,27.8,170.9,26.5,170.9,25z
		 M172.6,25.2c0,1.1,0.2,1.9,0.7,2.5c0.4,0.6,1.1,0.9,1.8,0.9c1,0,1.8-0.5,2.3-1.4v-4.3c-0.5-0.9-1.2-1.4-2.2-1.4
		c-0.8,0-1.4,0.3-1.9,0.9C172.8,23.1,172.6,24,172.6,25.2z"/>
	<path class="st6" d="M183.2,29.8h-1.6V16.3h1.6V29.8z"/>
	<path class="st6" d="M189.7,30c-1.3,0-2.3-0.4-3.1-1.3s-1.2-2-1.2-3.4V25c0-0.9,0.2-1.8,0.5-2.5c0.4-0.7,0.9-1.3,1.5-1.7
		c0.6-0.4,1.3-0.6,2.1-0.6c1.2,0,2.2,0.4,2.9,1.2s1,2,1,3.5v0.7H187c0,0.9,0.3,1.7,0.8,2.3c0.5,0.6,1.2,0.9,2,0.9
		c0.6,0,1.1-0.1,1.5-0.4s0.7-0.5,1-0.9l1,0.8C192.5,29.4,191.3,30,189.7,30z M189.5,21.5c-0.7,0-1.2,0.2-1.7,0.7s-0.7,1.1-0.8,2h4.8
		v-0.1c0-0.8-0.3-1.5-0.7-1.9S190.2,21.5,189.5,21.5z"/>
</g>
</svg>
