<?xml version="1.0" encoding="utf-8"?>
<!-- Generator: Adobe Illustrator 23.0.2, SVG Export Plug-In . SVG Version: 6.00 Build 0)  -->
<svg version="1.1" id="Layer_1" xmlns:sketch="http://www.bohemiancoding.com/sketch/ns"
	 xmlns="http://www.w3.org/2000/svg" xmlns:xlink="http://www.w3.org/1999/xlink" x="0px" y="0px" viewBox="0 0 213.3 46"
	 style="enable-background:new 0 0 213.3 46;" xml:space="preserve">
<style type="text/css">
	.st0{fill:#D3D3D3;}
	.st1{fill:none;}
	.st2{fill-rule:evenodd;clip-rule:evenodd;fill:#4285F4;}
	.st3{fill-rule:evenodd;clip-rule:evenodd;fill:#34A853;}
	.st4{fill-rule:evenodd;clip-rule:evenodd;fill:#FBBC05;}
	.st5{fill-rule:evenodd;clip-rule:evenodd;fill:#EA4335;}
	.st6{fill:#4C4C4C;}
	.st7{font-family:'Roboto-Regular';}
	.st8{font-size:18px;}
</style>
<title>btn_google_dark_normal_ios</title>
<desc>Created with Sketch.</desc>
<path class="st0" d="M202.8,42H6.8C5.2,42,4,40.8,4,39.2V6.8C4,5.2,5.2,4,6.8,4h196c1.5,0,2.8,1.2,2.8,2.8v32.5
	C205.6,40.8,204.3,42,202.8,42z"/>
<path class="st1" d="M5,4h36c0.6,0,1,0.4,1,1v36c0,0.6-0.4,1-1,1H5c-0.6,0-1-0.4-1-1V5C4,4.4,4.4,4,5,4z"/>
<path class="st1" d="M5,4h36c0.6,0,1,0.4,1,1v36c0,0.6-0.4,1-1,1H5c-0.6,0-1-0.4-1-1V5C4,4.4,4.4,4,5,4z"/>
<path class="st1" d="M5,4h36c0.6,0,1,0.4,1,1v36c0,0.6-0.4,1-1,1H5c-0.6,0-1-0.4-1-1V5C4,4.4,4.4,4,5,4z"/>
<path id="Shape" sketch:type="MSShapeGroup" class="st2" d="M31.6,23.2c0-0.6-0.1-1.3-0.2-1.8H23v3.5h4.8C27.6,26,27,26.9,26,27.6
	v2.3H29C30.7,28.3,31.6,25.9,31.6,23.2L31.6,23.2z"/>
<path sketch:type="MSShapeGroup" class="st3" d="M23,32c2.4,0,4.5-0.8,6-2.2L26,27.6c-0.8,0.5-1.8,0.9-3,0.9c-2.3,0-4.3-1.6-5-3.7
	h-3V27C16.4,30,19.5,32,23,32L23,32z"/>
<path sketch:type="MSShapeGroup" class="st4" d="M18,24.7c-0.2-0.5-0.3-1.1-0.3-1.7s0.1-1.2,0.3-1.7V19h-3c-0.6,1.2-1,2.6-1,4
	s0.3,2.8,1,4L18,24.7L18,24.7z"/>
<path sketch:type="MSShapeGroup" class="st5" d="M23,17.6c1.3,0,2.5,0.5,3.4,1.3l2.6-2.6c-1.6-1.5-3.6-2.3-6-2.3c-3.5,0-6.6,2-8,5
	l3,2.3C18.7,19.2,20.7,17.6,23,17.6L23,17.6z"/>
<path sketch:type="MSShapeGroup" class="st1" d="M14,14h18v18H14V14z"/>
<text transform="matrix(1 0 0 1 40.8473 29.8198)" class="st6 st7 st8">Sign in with Google</text>
</svg>
